<svg xmlns="http://www.w3.org/2000/svg" viewBox="0 0 1100 960" width="1100" height="960">
  <defs>
    <style>
      .region-celtae { fill: #c8dba5; stroke: #5a7a3a; }
      .region-belgica { fill: #f0d48a; stroke: #b8952e; }
      .region-aquitania { fill: #e8b88a; stroke: #a06830; }
      .region-britannia { fill: #a8c8e8; stroke: #4878a8; }
      .region-germania { fill: #d4b8a0; stroke: #8a6848; }
      .region-roman { fill: #e8a8a8; stroke: #b04040; }
      .region-sea { fill: #b8d8ef; stroke: #4878a8; stroke-width: 1; }

      .area-shape { stroke-width: 2; cursor: pointer; }
      .area-shape:hover { filter: brightness(1.08); }

      .label { font-family: 'Georgia', serif; font-size: 10px; fill: #1a1a1a; text-anchor: middle; pointer-events: none; font-weight: bold; }
      .label-small { font-family: 'Georgia', serif; font-size: 8px; fill: #555; text-anchor: middle; pointer-events: none; font-style: italic; }
      .label-sea { font-family: 'Georgia', serif; font-size: 13px; fill: #2a5a8a; text-anchor: middle; font-style: italic; pointer-events: none; }
      .label-region { font-family: 'Georgia', serif; font-size: 16px; fill: rgba(0,0,0,0.10); text-anchor: middle; font-weight: bold; font-variant: small-caps; letter-spacing: 3px; pointer-events: none; }

      .conn-regular { stroke: #666; stroke-width: 1.5; fill: none; }
      .conn-minor_river { stroke: #4488cc; stroke-width: 1.5; fill: none; }
      .conn-major_river { stroke: #2266aa; stroke-width: 3; fill: none; }
      .conn-naval { stroke: #4878a8; stroke-width: 1.2; fill: none; stroke-dasharray: 5,3; }
      .conn-limited { stroke: #b04040; stroke-width: 1.5; fill: none; stroke-dasharray: 4,3; }

      .fort-icon { fill: #6a3a1a; }
      .legend-text { font-family: 'Georgia', serif; font-size: 9px; fill: #333; }
    </style>
  </defs>

  <rect width="1100" height="960" fill="#f5f0e0" />

  <text x="550" y="28" text-anchor="middle" font-family="Georgia, serif" font-size="22" font-weight="bold" fill="#2a1a0a" letter-spacing="3">GALLIA</text>
  <text x="550" y="44" text-anchor="middle" font-family="Georgia, serif" font-size="11" fill="#6a5a4a" font-style="italic">Tempore Caesaris</text>

  <!-- Sea zone backgrounds -->
  <ellipse cx="60" cy="650" rx="55" ry="100" class="region-sea" opacity="0.35" />
  <ellipse cx="330" cy="140" rx="280" ry="55" class="region-sea" opacity="0.35" />

  <text x="60" y="645" class="label-sea" font-size="10">Mare</text>
  <text x="60" y="660" class="label-sea" font-size="10">Cantabricum</text>
  <text x="300" y="145" class="label-sea">Oceanus Britannicus</text>

  <!-- Region background labels -->
  <text x="420" y="510" class="label-region" transform="rotate(-5, 420, 510)">CELTAE</text>
  <text x="600" y="260" class="label-region">BELGICA</text>
  <text x="280" y="850" class="label-region">AQUITANIA</text>
  <text x="940" y="250" class="label-region" transform="rotate(60, 940, 250)">GERMANIA</text>

  <!--
    Center coordinates:
    belgae:250,65  osismi:100,280  andes:220,370  veneti:130,470
    esuvii:370,300  carnutes:370,440  bellovaci:490,290  atuatuci:590,335
    atrebates:530,200  menapi:720,170  treveri:720,290  mediomatrici:780,350
    mandubii:570,470  leuci:750,450  pictones:260,540  bituriges:400,570
    aedui:580,570  sequani:730,560  santones:250,650  arverni:430,670
    helvetii:750,710  allobroges:660,650  cadurci:360,760  boii:520,740
    volcae:500,880  tarbelli:220,830  tolosates:360,880
    transalpine_gaul:670,860  roman_off_map:850,890
    germania:960,270  mare_cantrabricum:60,650  oceanus_britannicus:330,140
  -->

  <!-- === CONNECTIONS (drawn first, behind areas) === -->

  <!-- Regular connections (grey) -->
  <line x1="100" y1="280" x2="130" y2="470" class="conn-regular" /><!-- osismi-veneti -->
  <line x1="100" y1="280" x2="220" y2="370" class="conn-regular" /><!-- osismi-andes -->
  <line x1="130" y1="470" x2="220" y2="370" class="conn-regular" /><!-- veneti-andes -->
  <line x1="220" y1="370" x2="370" y2="300" class="conn-regular" /><!-- andes-esuvii -->
  <line x1="260" y1="540" x2="370" y2="440" class="conn-regular" /><!-- pictones-carnutes -->
  <line x1="260" y1="540" x2="400" y2="570" class="conn-regular" /><!-- pictones-bituriges -->
  <line x1="370" y1="440" x2="400" y2="570" class="conn-regular" /><!-- carnutes-bituriges -->
  <line x1="370" y1="300" x2="570" y2="470" class="conn-regular" /><!-- esuvii-mandubii -->
  <line x1="490" y1="290" x2="590" y2="335" class="conn-regular" /><!-- bellovaci-atuatuci -->
  <line x1="400" y1="570" x2="430" y2="670" class="conn-regular" /><!-- bituriges-arverni -->
  <line x1="250" y1="650" x2="430" y2="670" class="conn-regular" /><!-- santones-arverni -->
  <line x1="250" y1="650" x2="360" y2="760" class="conn-regular" /><!-- santones-cadurci -->
  <line x1="580" y1="570" x2="570" y2="470" class="conn-regular" /><!-- aedui-mandubii -->
  <line x1="580" y1="570" x2="520" y2="740" class="conn-regular" /><!-- aedui-boii -->
  <line x1="520" y1="740" x2="500" y2="880" class="conn-regular" /><!-- boii-volcae -->
  <line x1="520" y1="740" x2="670" y2="860" class="conn-regular" /><!-- boii-transalpine_gaul -->
  <line x1="500" y1="880" x2="360" y2="880" class="conn-regular" /><!-- volcae-tolosates -->
  <line x1="500" y1="880" x2="670" y2="860" class="conn-regular" /><!-- volcae-transalpine_gaul -->
  <line x1="220" y1="830" x2="360" y2="880" class="conn-regular" /><!-- tarbelli-tolosates -->
  <line x1="660" y1="650" x2="730" y2="560" class="conn-regular" /><!-- allobroges-sequani -->
  <line x1="660" y1="650" x2="670" y2="860" class="conn-regular" /><!-- allobroges-transalpine_gaul -->
  <line x1="730" y1="560" x2="570" y2="470" class="conn-regular" /><!-- sequani-mandubii -->
  <line x1="730" y1="560" x2="810" y2="450" class="conn-regular" /><!-- sequani-leuci -->
  <line x1="810" y1="450" x2="570" y2="470" class="conn-regular" /><!-- leuci-mandubii -->
  <line x1="810" y1="450" x2="780" y2="350" class="conn-regular" /><!-- leuci-mediomatrici -->
  <line x1="720" y1="290" x2="570" y2="470" class="conn-regular" /><!-- treveri-mandubii -->
  <line x1="570" y1="470" x2="780" y2="350" class="conn-regular" /><!-- mandubii-mediomatrici -->
  <line x1="580" y1="250" x2="720" y2="170" class="conn-regular" /><!-- atrebates-menapi -->

  <!-- Minor river connections (blue) -->
  <line x1="130" y1="470" x2="260" y2="540" class="conn-minor_river" /><!-- veneti-pictones -->
  <line x1="220" y1="370" x2="260" y2="540" class="conn-minor_river" /><!-- andes-pictones -->
  <line x1="220" y1="370" x2="370" y2="440" class="conn-minor_river" /><!-- andes-carnutes -->
  <line x1="260" y1="540" x2="250" y2="650" class="conn-minor_river" /><!-- pictones-santones -->
  <line x1="370" y1="440" x2="370" y2="300" class="conn-minor_river" /><!-- carnutes-esuvii -->
  <line x1="370" y1="440" x2="570" y2="470" class="conn-minor_river" /><!-- carnutes-mandubii -->
  <line x1="370" y1="300" x2="490" y2="290" class="conn-minor_river" /><!-- esuvii-bellovaci -->
  <line x1="490" y1="290" x2="570" y2="470" class="conn-minor_river" /><!-- bellovaci-mandubii -->
  <line x1="490" y1="290" x2="580" y2="250" class="conn-minor_river" /><!-- bellovaci-atrebates -->
  <line x1="590" y1="335" x2="570" y2="470" class="conn-minor_river" /><!-- atuatuci-mandubii -->
  <line x1="590" y1="335" x2="580" y2="250" class="conn-minor_river" /><!-- atuatuci-atrebates -->
  <line x1="590" y1="335" x2="720" y2="290" class="conn-minor_river" /><!-- atuatuci-treveri -->
  <line x1="590" y1="335" x2="720" y2="170" class="conn-minor_river" /><!-- atuatuci-menapi -->
  <line x1="720" y1="170" x2="720" y2="290" class="conn-minor_river" /><!-- menapi-treveri -->
  <line x1="720" y1="290" x2="780" y2="350" class="conn-minor_river" /><!-- treveri-mediomatrici -->
  <line x1="400" y1="570" x2="250" y2="650" class="conn-minor_river" /><!-- bituriges-santones -->
  <line x1="400" y1="570" x2="580" y2="570" class="conn-minor_river" /><!-- bituriges-aedui -->
  <line x1="400" y1="570" x2="570" y2="470" class="conn-minor_river" /><!-- bituriges-mandubii -->
  <line x1="430" y1="670" x2="360" y2="760" class="conn-minor_river" /><!-- arverni-cadurci -->
  <line x1="430" y1="670" x2="500" y2="880" class="conn-minor_river" /><!-- arverni-volcae -->
  <line x1="430" y1="670" x2="520" y2="740" class="conn-minor_river" /><!-- arverni-boii -->
  <line x1="430" y1="670" x2="580" y2="570" class="conn-minor_river" /><!-- arverni-aedui -->
  <line x1="580" y1="570" x2="660" y2="650" class="conn-minor_river" /><!-- aedui-allobroges -->
  <line x1="580" y1="570" x2="730" y2="560" class="conn-minor_river" /><!-- aedui-sequani -->
  <line x1="520" y1="740" x2="660" y2="650" class="conn-minor_river" /><!-- boii-allobroges -->
  <line x1="660" y1="650" x2="750" y2="710" class="conn-minor_river" /><!-- allobroges-helvetii -->
  <line x1="750" y1="710" x2="730" y2="560" class="conn-minor_river" /><!-- helvetii-sequani -->
  <line x1="750" y1="710" x2="810" y2="450" class="conn-minor_river" /><!-- helvetii-leuci -->
  <line x1="750" y1="710" x2="670" y2="860" class="conn-minor_river" /><!-- helvetii-transalpine_gaul -->
  <line x1="360" y1="760" x2="220" y2="830" class="conn-minor_river" /><!-- cadurci-tarbelli -->
  <line x1="360" y1="760" x2="360" y2="880" class="conn-minor_river" /><!-- cadurci-tolosates -->
  <line x1="360" y1="760" x2="500" y2="880" class="conn-minor_river" /><!-- cadurci-volcae -->
  <line x1="250" y1="650" x2="220" y2="830" class="conn-minor_river" /><!-- santones-tarbelli -->
  <line x1="580" y1="570" x2="400" y2="570" class="conn-minor_river" opacity="0" /><!-- already drawn -->

  <!-- Major river connections (Rhine) -->
  <line x1="810" y1="450" x2="960" y2="270" class="conn-major_river" /><!-- leuci-germania -->
  <line x1="780" y1="350" x2="960" y2="270" class="conn-major_river" /><!-- mediomatrici-germania -->
  <line x1="720" y1="290" x2="960" y2="270" class="conn-major_river" /><!-- treveri-germania -->
  <line x1="720" y1="170" x2="960" y2="270" class="conn-major_river" /><!-- menapi-germania -->

  <!-- Naval connections -->
  <line x1="100" y1="280" x2="60" y2="650" class="conn-naval" /><!-- osismi-mare_cantrabricum -->
  <line x1="130" y1="470" x2="60" y2="650" class="conn-naval" /><!-- veneti-mare_cantrabricum -->
  <line x1="260" y1="540" x2="60" y2="650" class="conn-naval" /><!-- pictones-mare_cantrabricum -->
  <line x1="250" y1="650" x2="60" y2="650" class="conn-naval" /><!-- santones-mare_cantrabricum -->
  <line x1="100" y1="280" x2="330" y2="140" class="conn-naval" /><!-- osismi-oceanus_britannicus -->
  <line x1="220" y1="370" x2="330" y2="140" class="conn-naval" /><!-- andes-oceanus_britannicus -->
  <line x1="370" y1="300" x2="330" y2="140" class="conn-naval" /><!-- esuvii-oceanus_britannicus -->
  <line x1="490" y1="290" x2="330" y2="140" class="conn-naval" /><!-- bellovaci-oceanus_britannicus -->
  <line x1="580" y1="250" x2="330" y2="140" class="conn-naval" /><!-- atrebates-oceanus_britannicus -->
  <line x1="250" y1="65" x2="330" y2="140" class="conn-naval" /><!-- belgae-oceanus_britannicus -->

  <!-- Limited connection -->
  <line x1="670" y1="860" x2="850" y2="890" class="conn-limited" /><!-- transalpine_gaul-roman_off_map -->

  <!-- === AREA SHAPES (octagons, ~80x56, on top of connections) === -->

  <!-- Celtae -->
  <polygon points="60,265 75,252 125,252 140,265 140,295 125,308 75,308 60,295" class="area-shape region-celtae" /><!-- osismi -->
  <polygon points="90,455 105,442 155,442 170,455 170,485 155,498 105,498 90,485" class="area-shape region-celtae" /><!-- veneti -->
  <polygon points="180,355 195,342 245,342 260,355 260,385 245,398 195,398 180,385" class="area-shape region-celtae" /><!-- andes -->
  <polygon points="220,525 235,512 285,512 300,525 300,555 285,568 235,568 220,555" class="area-shape region-celtae" /><!-- pictones -->
  <polygon points="330,285 345,272 395,272 410,285 410,315 395,328 345,328 330,315" class="area-shape region-celtae" /><!-- esuvii -->
  <polygon points="330,425 345,412 395,412 410,425 410,455 395,468 345,468 330,455" class="area-shape region-celtae" /><!-- carnutes -->
  <polygon points="360,555 375,542 425,542 440,555 440,585 425,598 375,598 360,585" class="area-shape region-celtae" /><!-- bituriges -->
  <polygon points="530,455 545,442 595,442 610,455 610,485 595,498 545,498 530,485" class="area-shape region-celtae" /><!-- mandubii -->
  <polygon points="540,555 555,542 605,542 620,555 620,585 605,598 555,598 540,585" class="area-shape region-celtae" /><!-- aedui -->
  <polygon points="390,655 405,642 455,642 470,655 470,685 455,698 405,698 390,685" class="area-shape region-celtae" /><!-- arverni -->
  <polygon points="480,725 495,712 545,712 560,725 560,755 545,768 495,768 480,755" class="area-shape region-celtae" /><!-- boii -->
  <polygon points="460,865 475,852 525,852 540,865 540,895 525,908 475,908 460,895" class="area-shape region-celtae" /><!-- volcae -->
  <polygon points="320,745 335,732 385,732 400,745 400,775 385,788 335,788 320,775" class="area-shape region-celtae" /><!-- cadurci -->
  <polygon points="210,635 225,622 275,622 290,635 290,665 275,678 225,678 210,665" class="area-shape region-celtae" /><!-- santones -->
  <polygon points="690,545 705,532 755,532 770,545 770,575 755,588 705,588 690,575" class="area-shape region-celtae" /><!-- sequani -->
  <polygon points="770,435 785,422 835,422 850,435 850,465 835,478 785,478 770,465" class="area-shape region-celtae" /><!-- leuci -->
  <polygon points="710,695 725,682 775,682 790,695 790,725 775,738 725,738 710,725" class="area-shape region-celtae" /><!-- helvetii -->
  <polygon points="620,635 635,622 685,622 700,635 700,665 685,678 635,678 620,665" class="area-shape region-celtae" /><!-- allobroges -->

  <!-- Belgica -->
  <polygon points="450,275 465,262 515,262 530,275 530,305 515,318 465,318 450,305" class="area-shape region-belgica" /><!-- bellovaci -->
  <polygon points="550,320 565,307 615,307 630,320 630,350 615,363 565,363 550,350" class="area-shape region-belgica" /><!-- atuatuci -->
  <polygon points="540,235 555,222 605,222 620,235 620,265 605,278 555,278 540,265" class="area-shape region-belgica" /><!-- atrebates -->
  <polygon points="680,155 695,142 745,142 760,155 760,185 745,198 695,198 680,185" class="area-shape region-belgica" /><!-- menapi -->
  <polygon points="680,275 695,262 745,262 760,275 760,305 745,318 695,318 680,305" class="area-shape region-belgica" /><!-- treveri -->
  <polygon points="740,335 755,322 805,322 820,335 820,365 805,378 755,378 740,365" class="area-shape region-belgica" /><!-- mediomatrici -->

  <!-- Aquitania -->
  <polygon points="180,815 195,802 245,802 260,815 260,845 245,858 195,858 180,845" class="area-shape region-aquitania" /><!-- tarbelli -->
  <polygon points="320,865 335,852 385,852 400,865 400,895 385,908 335,908 320,895" class="area-shape region-aquitania" /><!-- tolosates -->

  <!-- Britannia -->
  <polygon points="210,50 225,37 275,37 290,50 290,80 275,93 225,93 210,80" class="area-shape region-britannia" /><!-- belgae -->

  <!-- Germania -->
  <polygon points="915,215 935,195 985,195 1005,215 1005,325 985,345 935,345 915,325" class="area-shape region-germania" /><!-- germania -->

  <!-- Roman -->
  <polygon points="630,845 645,832 695,832 710,845 710,875 695,888 645,888 630,875" class="area-shape region-roman" /><!-- transalpine_gaul -->
  <polygon points="810,875 825,862 875,862 890,875 890,905 875,918 825,918 810,905" class="area-shape region-roman" /><!-- roman_off_map -->

  <!-- === LABELS === -->

  <!-- Celtae -->
  <text x="100" y="278" class="label">Osismi</text>
  <text x="130" y="468" class="label">Veneti</text>
  <text x="220" y="368" class="label">Andes</text>
  <text x="220" y="380" class="label-small">+ Venelli</text>
  <text x="260" y="537" class="label">Pictones</text>
  <text x="260" y="549" class="label-small">/ Namnetes</text>
  <text x="370" y="298" class="label">Esuvii</text>
  <text x="370" y="310" class="label-small">/ Luxovii</text>
  <text x="370" y="438" class="label">Carnutes</text>
  <text x="370" y="450" class="label-small">/ Cenomani</text>
  <text x="400" y="568" class="label">Bituriges</text>
  <text x="400" y="580" class="label-small">+ Arvii</text>
  <text x="570" y="468" class="label">Mandubii</text>
  <text x="570" y="480" class="label-small">+ Senones</text>
  <text x="580" y="568" class="label">Aedui</text>
  <text x="430" y="668" class="label">Arverni</text>
  <text x="520" y="738" class="label">Boii</text>
  <text x="520" y="750" class="label-small">+ Helvii</text>
  <text x="500" y="878" class="label">Volcae</text>
  <text x="360" y="758" class="label">Cadurci</text>
  <text x="360" y="770" class="label-small">+ Ruteni</text>
  <text x="250" y="648" class="label">Santones</text>
  <text x="250" y="660" class="label-small">+ Lemovicii</text>
  <text x="730" y="558" class="label">Sequani</text>
  <text x="810" y="448" class="label">Leuci</text>
  <text x="750" y="708" class="label">Helvetii</text>
  <text x="660" y="660" class="label-small">(Nantuates)</text>
  <text x="660" y="648" class="label">Allobroges</text>

  <!-- Belgica -->
  <text x="490" y="288" class="label">Bellovaci</text>
  <text x="490" y="300" class="label-small">+ Caletes</text>
  <text x="590" y="333" class="label">Atuatuci</text>
  <text x="590" y="345" class="label-small">/ Remi</text>
  <text x="580" y="248" class="label">Atrebates</text>
  <text x="580" y="260" class="label-small">/ Morini</text>
  <text x="720" y="168" class="label">Menapi</text>
  <text x="720" y="180" class="label-small">/ Nervii</text>
  <text x="720" y="288" class="label">Treveri</text>
  <text x="720" y="300" class="label-small">+ Eburones</text>
  <text x="780" y="348" class="label">Mediomatrici</text>

  <!-- Aquitania -->
  <text x="220" y="828" class="label">Tarbelli</text>
  <text x="220" y="840" class="label-small">/ Elusates</text>
  <text x="360" y="878" class="label">Tolosates</text>
  <text x="360" y="890" class="label-small">/ Sotiates</text>

  <!-- Britannia -->
  <text x="250" y="63" class="label">Belgae</text>
  <text x="250" y="75" class="label-small">+ Cantiaci</text>

  <!-- Germania -->
  <text x="960" y="268" class="label">Germania</text>

  <!-- Roman -->
  <text x="670" y="858" class="label">Transalpine</text>
  <text x="670" y="870" class="label-small">Gaul</text>
  <text x="850" y="888" class="label">Roman</text>
  <text x="850" y="900" class="label-small">Off-Map</text>

  <!-- === FORT ICONS === -->
  <g transform="translate(448, 660)">
    <rect x="-5" y="-8" width="10" height="8" class="fort-icon" />
    <rect x="-7" y="-12" width="3" height="4" class="fort-icon" />
    <rect x="-1" y="-12" width="3" height="4" class="fort-icon" />
    <rect x="4" y="-12" width="3" height="4" class="fort-icon" />
    <text x="0" y="7" class="label-small" font-size="7">Gergovia ★</text>
  </g>
  <g transform="translate(418, 560)">
    <rect x="-5" y="-8" width="10" height="8" class="fort-icon" />
    <rect x="-7" y="-12" width="3" height="4" class="fort-icon" />
    <rect x="-1" y="-12" width="3" height="4" class="fort-icon" />
    <rect x="4" y="-12" width="3" height="4" class="fort-icon" />
    <rect x="-7" y="-15" width="14" height="2" fill="#4a2a0a" />
    <text x="0" y="7" class="label-small" font-size="7">Avaricum ★★</text>
  </g>
  <g transform="translate(388, 432)">
    <rect x="-5" y="-8" width="10" height="8" class="fort-icon" />
    <rect x="-7" y="-12" width="3" height="4" class="fort-icon" />
    <rect x="-1" y="-12" width="3" height="4" class="fort-icon" />
    <rect x="4" y="-12" width="3" height="4" class="fort-icon" />
    <text x="0" y="7" class="label-small" font-size="7">Cenabum ★</text>
  </g>
  <g transform="translate(588, 462)">
    <rect x="-5" y="-8" width="10" height="8" class="fort-icon" />
    <rect x="-7" y="-12" width="3" height="4" class="fort-icon" />
    <rect x="-1" y="-12" width="3" height="4" class="fort-icon" />
    <rect x="4" y="-12" width="3" height="4" class="fort-icon" />
    <text x="0" y="7" class="label-small" font-size="7">Alesia ★</text>
  </g>
  <g transform="translate(508, 282)">
    <rect x="-5" y="-8" width="10" height="8" class="fort-icon" />
    <rect x="-7" y="-12" width="3" height="4" class="fort-icon" />
    <rect x="-1" y="-12" width="3" height="4" class="fort-icon" />
    <rect x="4" y="-12" width="3" height="4" class="fort-icon" />
    <text x="0" y="7" class="label-small" font-size="7">Bratuspantium ★</text>
  </g>
  <g transform="translate(378, 752)">
    <rect x="-5" y="-8" width="10" height="8" class="fort-icon" />
    <rect x="-7" y="-12" width="3" height="4" class="fort-icon" />
    <rect x="-1" y="-12" width="3" height="4" class="fort-icon" />
    <rect x="4" y="-12" width="3" height="4" class="fort-icon" />
    <text x="0" y="7" class="label-small" font-size="7">Uxellodunum ★</text>
  </g>
  <g transform="translate(518, 870)">
    <rect x="-5" y="-8" width="10" height="8" class="fort-icon" />
    <rect x="-7" y="-12" width="3" height="4" class="fort-icon" />
    <rect x="-1" y="-12" width="3" height="4" class="fort-icon" />
    <rect x="4" y="-12" width="3" height="4" class="fort-icon" />
    <text x="0" y="7" class="label-small" font-size="7">Narbo ★</text>
  </g>
  <g transform="translate(748, 550)">
    <rect x="-5" y="-8" width="10" height="8" class="fort-icon" />
    <rect x="-7" y="-12" width="3" height="4" class="fort-icon" />
    <rect x="-1" y="-12" width="3" height="4" class="fort-icon" />
    <rect x="4" y="-12" width="3" height="4" class="fort-icon" />
    <text x="0" y="7" class="label-small" font-size="7">Bibracte ★</text>
  </g>
  <g transform="translate(688, 852)">
    <rect x="-5" y="-8" width="10" height="8" class="fort-icon" />
    <rect x="-7" y="-12" width="3" height="4" class="fort-icon" />
    <rect x="-1" y="-12" width="3" height="4" class="fort-icon" />
    <rect x="4" y="-12" width="3" height="4" class="fort-icon" />
    <rect x="-7" y="-15" width="14" height="2" fill="#4a2a0a" />
    <text x="0" y="7" class="label-small" font-size="7">Aquae Sextiae ★★</text>
  </g>

  <!-- === PORT ICONS === -->
  <g>
    <circle cx="82" cy="284" r="4" fill="none" stroke="#2a5a8a" stroke-width="1.5" />
    <line x1="82" y1="280" x2="82" y2="288" stroke="#2a5a8a" stroke-width="1.5" />
  </g><!-- osismi -->
  <g>
    <circle cx="112" cy="474" r="4" fill="none" stroke="#2a5a8a" stroke-width="1.5" />
    <line x1="112" y1="470" x2="112" y2="478" stroke="#2a5a8a" stroke-width="1.5" />
  </g><!-- veneti -->
  <g>
    <circle cx="202" cy="374" r="4" fill="none" stroke="#2a5a8a" stroke-width="1.5" />
    <line x1="202" y1="370" x2="202" y2="378" stroke="#2a5a8a" stroke-width="1.5" />
  </g><!-- andes -->
  <g>
    <circle cx="242" cy="544" r="4" fill="none" stroke="#2a5a8a" stroke-width="1.5" />
    <line x1="242" y1="540" x2="242" y2="548" stroke="#2a5a8a" stroke-width="1.5" />
  </g><!-- pictones -->
  <g>
    <circle cx="352" cy="304" r="4" fill="none" stroke="#2a5a8a" stroke-width="1.5" />
    <line x1="352" y1="300" x2="352" y2="308" stroke="#2a5a8a" stroke-width="1.5" />
  </g><!-- esuvii -->
  <g>
    <circle cx="472" cy="294" r="4" fill="none" stroke="#2a5a8a" stroke-width="1.5" />
    <line x1="472" y1="290" x2="472" y2="298" stroke="#2a5a8a" stroke-width="1.5" />
  </g><!-- bellovaci -->
  <g>
    <circle cx="512" cy="204" r="4" fill="none" stroke="#2a5a8a" stroke-width="1.5" />
    <line x1="512" y1="200" x2="512" y2="208" stroke="#2a5a8a" stroke-width="1.5" />
  </g><!-- atrebates -->
  <g>
    <circle cx="232" cy="654" r="4" fill="none" stroke="#2a5a8a" stroke-width="1.5" />
    <line x1="232" y1="650" x2="232" y2="658" stroke="#2a5a8a" stroke-width="1.5" />
  </g><!-- santones -->
  <g>
    <circle cx="232" cy="69" r="4" fill="none" stroke="#2a5a8a" stroke-width="1.5" />
    <line x1="232" y1="65" x2="232" y2="73" stroke="#2a5a8a" stroke-width="1.5" />
  </g><!-- belgae -->

  <!-- === LEGEND === -->
  <g transform="translate(920, 420)">
    <rect x="0" y="0" width="160" height="145" fill="white" fill-opacity="0.85" stroke="#999" rx="4" />
    <text x="8" y="14" class="legend-text" font-weight="bold">Connections</text>
    <line x1="8" y1="28" x2="35" y2="28" class="conn-regular" />
    <text x="40" y="32" class="legend-text">Regular</text>
    <line x1="8" y1="44" x2="35" y2="44" class="conn-minor_river" />
    <text x="40" y="48" class="legend-text">Minor River</text>
    <line x1="8" y1="60" x2="35" y2="60" class="conn-major_river" />
    <text x="40" y="64" class="legend-text">Rhine</text>
    <line x1="8" y1="76" x2="35" y2="76" class="conn-naval" />
    <text x="40" y="80" class="legend-text">Naval</text>
    <line x1="8" y1="92" x2="35" y2="92" class="conn-limited" />
    <text x="40" y="96" class="legend-text">Limited</text>

    <text x="8" y="114" class="legend-text" font-weight="bold">Symbols</text>
    <circle cx="16" cy="126" r="4" fill="none" stroke="#2a5a8a" stroke-width="1.5" />
    <line x1="16" y1="122" x2="16" y2="130" stroke="#2a5a8a" stroke-width="1.5" />
    <text x="25" y="130" class="legend-text">Port</text>
    <rect x="68" y="121" width="8" height="8" fill="#6a3a1a" />
    <text x="80" y="130" class="legend-text">Fort</text>
  </g>

  <g transform="translate(920, 575)">
    <rect x="0" y="0" width="160" height="55" fill="white" fill-opacity="0.85" stroke="#999" rx="4" />
    <text x="8" y="14" class="legend-text" font-weight="bold">Regions</text>
    <rect x="8" y="22" width="10" height="10" class="region-celtae" />
    <text x="22" y="31" class="legend-text">Celtae</text>
    <rect x="65" y="22" width="10" height="10" class="region-belgica" />
    <text x="79" y="31" class="legend-text">Belgica</text>
    <rect x="8" y="38" width="10" height="10" class="region-aquitania" />
    <text x="22" y="47" class="legend-text">Aquitania</text>
    <rect x="80" y="38" width="10" height="10" class="region-roman" />
    <text x="94" y="47" class="legend-text">Roman</text>
  </g>
</svg>