<svg xmlns="http://www.w3.org/2000/svg" width="420" height="600" viewBox="0 0 420 600" role="img" aria-labelledby="title desc">
  <title id="title">Baggage Train card</title>
  <desc id="desc">Event card with 1 action point.</desc>
  <defs>
    <linearGradient id="field" x1="0" y1="0" x2="1" y2="1">
      <stop offset="0" stop-color="#8c7351"/>
      <stop offset="0.62" stop-color="#544631"/>
      <stop offset="1" stop-color="#1d1a14"/>
    </linearGradient>
    <pattern id="grain" width="34" height="34" patternUnits="userSpaceOnUse">
      <path d="M0 15 C8 10 16 20 34 13 M-4 31 C8 24 21 36 38 27" fill="none" stroke="#f3e6c7" stroke-opacity="0.08" stroke-width="2"/>
      <circle cx="9" cy="8" r="1.8" fill="#f3e6c7" fill-opacity="0.06"/>
    </pattern>
    <filter id="shadow" x="-20%" y="-20%" width="140%" height="140%">
      <feDropShadow dx="0" dy="5" stdDeviation="4" flood-color="#000" flood-opacity="0.34"/>
    </filter>
  </defs>

  <rect x="10" y="10" width="400" height="580" rx="22" fill="#1d1a14"/>
  <rect x="22" y="22" width="376" height="556" rx="18" fill="url(#field)"/>
  <rect x="22" y="22" width="376" height="556" rx="18" fill="url(#grain)"/>
  <rect x="38" y="38" width="344" height="524" rx="12" fill="none" stroke="#f5ddb0" stroke-opacity="0.82" stroke-width="4"/>

  <text x="210" y="82" text-anchor="middle" font-family="Georgia, 'Times New Roman', serif" font-size="42" font-weight="700" fill="#fff0c8">
    <tspan x="210" y="82">Baggage Train</tspan>
  </text>
  <g transform="translate(70 122)" stroke="#e2c58f" stroke-width="6" stroke-linecap="round" stroke-linejoin="round" fill="none">
  <rect x="58" y="102" width="156" height="72" rx="10" fill="#15130f" fill-opacity="0.35"/>
  <path d="M76 102 L100 68 H188 L214 102"/>
  <path d="M76 174 H214"/>
  <circle cx="100" cy="190" r="18" fill="#15130f"/>
  <circle cx="190" cy="190" r="18" fill="#15130f"/>
  <path d="M122 68 V174 M166 68 V174"/>
  <path d="M232 121 C252 110 274 119 286 141"/>
</g>


  <text x="210" y="390" text-anchor="middle" font-family="ui-sans-serif, system-ui, sans-serif" font-size="20" font-weight="800" fill="#f9e6b8" letter-spacing="1.6">Event</text>

  <g filter="url(#shadow)">
    <circle cx="210" cy="468" r="46" fill="#15130f" stroke="#f5ddb0" stroke-width="5"/>
    <text x="210" y="491" text-anchor="middle" font-family="Georgia, 'Times New Roman', serif" font-size="64" font-weight="700" fill="#f9e6b8">1</text>
  </g>

  <path d="M67 538 H244" stroke="#f5ddb0" stroke-opacity="0.48" stroke-width="3"/>
  <text x="68" y="555" font-family="ui-sans-serif, system-ui, sans-serif" font-size="13" fill="#f5ddb0" opacity="0.82">CAESAR'S GALLIC WAR</text>
  <text x="346" y="555" text-anchor="middle" font-family="ui-sans-serif, system-ui, sans-serif" font-size="15" font-weight="800" fill="#f5ddb0" opacity="0.88">14</text>
</svg>
