<svg xmlns="http://www.w3.org/2000/svg" xmlns:xlink="http://www.w3.org/1999/xlink" viewBox="0 0 100 100" width="100" height="100" >
  <title>Anchor Symbol</title>
  <desc>Generic anchor symbol</desc>

  <defs>
    <marker
      id="arrowhead"
      viewBox="0 0 10 10"
      refX="5"
      refY="5"
      markerWidth="6"
      markerHeight="6"
      orient="auto-start-reverse">
      <path d="M 0 0 L 10 5 L 0 10 z" />
    </marker>
  </defs>

  <rect
    id="background"
    fill="white"
    height="100"
    width="100"
    stroke="black"
    stroke-width="3"
  />

  <g id="anchor">
    <circle cx="50" cy="20" r="6" fill="blue" stroke-width=".3" stroke="black"/>
    <circle cx="50" cy="20" r="4.5" fill="white" stroke-width="1" stroke="blue"/>
    <circle cx="50" cy="20" r="4.1" fill="none" stroke-width=".3" stroke="black"/>

    <rect x="36" y="35" width="28" height="3" fill="blue" stroke="black" stroke-width=".3"/>
    <rect x="48.5" y="26" width="3" height="44" fill="blue" stroke="black" stroke-width=".3"/>
    
    <g id="flukes">
      <path
        id="fluke-border"
        d="
          M 50.5 71
          Q 35 65 30 55
          Q 37 56 34 57
          M 49.5 71
          Q 65 65 70 55
          Q 63 56 66 57
        "
        fill="none"
        stroke="black"
        stroke-width="2.9"
      />

      <path
        id="fluke"
        d="
          M 50.5 71
          Q 35 65 30 55
          Q 37 56 34 57
          M 49.5 71
          Q 65 65 70 55
          Q 63 56 66 57
        "
        fill="none"
        stroke="blue"
        stroke-width="2.5"
      />
    </g>
  </g>
</svg>