<svg xmlns="http://www.w3.org/2000/svg" xmlns:xlink="http://www.w3.org/1999/xlink" viewBox="0 0 100 100" width="100" height="100" >
  <title>Helmet</title>
  <desc>Generic barbarian helmet icon</desc>

  <defs>
    <path
      id="helmet"
      d="
        M 20,40
        A 1 1 0 0 1 80,40
        Q 50,32 20,40

        Q 25,50 25,70 
        Q 35,85 38,80
        Q 35,60 38,55
        Q 30,55 28,38

        M 72,38

        Q 70,55 62,55
        Q 65,60 62,80
        Q 65,85 75,70
        Q 75,50 80,40

        M 47,36 
        Q 42,50 46,60
        L 55,60
        Q 58,50 53,36
        Z
      "
      fill="#49371B"
      stroke="black"
      stroke-width="0.7"
    />
    <clipPath id="helmet-path">
      <use href="#helmet"/>
    </clipPath>
  </defs>

  <rect
    id="background"
    fill="white"
    height="100"
    width="100"
    stroke="black"
    stroke-width="3"
  />

  <use href="#helmet"/>

  <g id="emboss">
    <path
      id="horizontal"
      d="
        M 18,38
        Q 50,29 82,38
        M 50,36
        L 50,9
      "
      fill="none"
      stroke="#b87f0d"
      stroke-width="5"
      clip-path="url(#helmet-path)"
    />
  </g>
</svg>
