<svg xmlns="http://www.w3.org/2000/svg" xmlns:xlink="http://www.w3.org/1999/xlink" viewBox="0 0 100 100" width="100" height="100" >
  <title>Roman Shield</title>
  <desc>Roman Shield</desc>

  <defs>
    <marker
      id="arrow"
      viewBox="0 0 10 10"
      refX="5"
      refY="5"
      markerWidth="3"
      markerHeight="3"
      orient="auto-start-reverse"
      fill="yellow"
    >
      <path d="M 0 0 L 10 5 L 0 10 z"/>
    </marker>
  </defs>

  <rect
    id="background"
    fill="salmon"
    height="100"
    width="100"
    stroke="black"
    stroke-width="3"
  />

  <path
    id="shield"
    d="
      M 20,10
      Q 50,2 80,10
      Q 84,50 80,90
      Q 50,98 20,90
      Q 16,50 20,10
      Z
    "
    fill="red"
    stroke="gold"
  />

  <g id="wings" stroke="black" stroke-width="0.3" fill="yellow">
    <path
      id="wing"
      d="
        M 50 42
        C 42,45 32,40 34,21
        C 12,24 28,58 50,48
      "
    />

    <use href="#wing" transform="translate(100,0) scale(-1,1)"/>
    <use href="#wing" transform="translate(0,100) scale(1,-1)"/>
    <use href="#wing" transform="translate(100,100) scale(-1,-1)"/>
  </g>

  <g id="bolts">
    <line x1="50" y1="50" x2="50" y2="10" stroke="yellow" marker-end="url(#arrow)"/>
    <line x1="50" y1="50" x2="50" y2="90" stroke="yellow" marker-end="url(#arrow)"/>

    <polyline
      id="bolt"
      points="
        50,50
        40,35
        46,30
        40,22
        46,17
        42,11
      "
      stroke="yellow"
      fill="none"
      marker-end="url(#arrow)"
    />
    <use href="#bolt" transform="translate(100,0) scale(-1,1)"/>
    <use href="#bolt" transform="translate(100,100) scale(-1,-1)"/>
    <use href="#bolt" transform="translate(0,100) scale(1,-1)"/>
  </g>

  <g id="center">
    <rect x="43" y="41" width="14" height="18" fill="grey" stroke="white" stroke-width="0.3" rx="3"/>
    <circle cx="50" cy="50" r="4" fill="silver" stroke="white" stroke-width="0.3"/>
  </g>   
</svg>
