<svg xmlns="http://www.w3.org/2000/svg" xmlns:xlink="http://www.w3.org/1999/xlink" viewBox="0 0 100 100" width="100" height="100" >
  <title>Legion XII</title>
  <desc>Roman Legion XII</desc>

  <defs>
    <marker
      id="arrow"
      viewBox="0 0 10 10"
      refX="5"
      refY="5"
      markerWidth="3"
      markerHeight="3"
      orient="auto-start-reverse"
      fill="yellow"
    >
      <path d="M 0 0 L 10 5 L 0 10 z"/>
    </marker>
  </defs>

  <rect
    id="background"
    fill="salmon"
    height="100"
    width="100"
    stroke="black"
    stroke-width="3"
  />

  <rect
    id="background"
    fill="salmon"
    height="100"
    width="100"
    stroke="black"
    stroke-width="3"
  />

  <g id="unit" text-anchor="middle" font-size="11" font-family="Papyrus">
    <rect
      x="21"
      y="21"
      width="58"
      height="58"
      fill="red"
      stroke="black"
    />

    <text x="50" y="33" fill="white">Legion XII</text>
  </g>

  <g id="shield" transform="scale(0.4) translate(75,92)">
    <rect id="shield_outline"
      x="20"
      y="7"
      width="60"
      height="86"
      fill="darkred"
      stroke="white"
      stroke-width="1"
      rx="10"
      ry="13"
    />

    <g id="wings" stroke="gold" stroke-width="0.3" fill="yellow">
      <path
        id="wing"
        d="
          M 50 42
          C 42,45 32,40 34,21
          C 12,24 28,58 50,48
        "
      />

      <use href="#wing" transform="translate(100,0) scale(-1,1)"/>
      <use href="#wing" transform="translate(0,100) scale(1,-1)"/>
      <use href="#wing" transform="translate(100,100) scale(-1,-1)"/>
    </g>

    <g id="bolts">
      <line x1="50" y1="50" x2="50" y2="10" stroke="yellow" marker-end="url(#arrow)"/>
      <line x1="50" y1="50" x2="50" y2="90" stroke="yellow" marker-end="url(#arrow)"/>

      <polyline
        id="bolt"
        points="
          50,50
          40,35
          46,30
          40,22
          46,17
          42,11
        "
        stroke="yellow"
        fill="none"
        marker-end="url(#arrow)"
      />
      <use href="#bolt" transform="translate(100,0) scale(-1,1)"/>
      <use href="#bolt" transform="translate(100,100) scale(-1,-1)"/>
      <use href="#bolt" transform="translate(0,100) scale(1,-1)"/>
    </g>

    <g id="center">
      <rect x="43" y="41" width="14" height="18" fill="grey" stroke="white" stroke-width="0.3" rx="3"/>
      <circle cx="50" cy="50" r="4" fill="silver" stroke="white" stroke-width="0.3"/>
    </g>
  </g>

  <g id="attributes" text-anchor="middle" font-size="16">
    <rect
      id="initiative"
      x="10"
      y="70"
      height="16"
      width="20"
      fill="white"
      stroke="black"
    />

    <text x="20" y="84">A</text>

    <rect
      id="firepower"
      x="70"
      y="70"
      height="16"
      width="20"
      fill="white"
      stroke="black"
    />

    <text x="80" y="84">2</text>
  </g>

  <g id="strength" text-anchor="middle" font-family="Papyrus" font-size="18">
    <text x="50" y="16">4</text>
    <text x="50" y="16" fill="white" transform="rotate(90,50,50)">3</text>
    <text x="50" y="16" transform="rotate(180,50,50)">2</text>
    <text x="50" y="16" transform="rotate(270,50,50)">1</text>
  </g>
</svg>
